<svg width="15" height="15" viewBox="0 0 15 15" fill="none" xmlns="http://www.w3.org/2000/svg">
<g clip-path="url(#clip0)">
<path d="M14.8718 7.16602L10.372 2.16629C10.276 2.06029 10.142 2.0003 10 2.0003H7.00018C6.8032 2.0003 6.6242 2.11629 6.54321 2.29628C6.46321 2.47727 6.49621 2.68826 6.6282 2.83425L10.827 7.5L6.6282 12.1647C6.49621 12.3117 6.46221 12.5227 6.54321 12.7027C6.6242 12.8837 6.8032 12.9997 7.00018 12.9997H10C10.142 12.9997 10.276 12.9387 10.372 12.8347L14.8718 7.83498C15.0427 7.64499 15.0427 7.35501 14.8718 7.16602Z" fill="#00D1FF"/>
<path d="M8.37211 7.16602L3.87235 2.16629C3.77636 2.06029 3.64236 2.0003 3.50037 2.0003H0.500535C0.303546 2.0003 0.124556 2.11629 0.0435599 2.29628C-0.0364357 2.47727 -0.00343754 2.68826 0.128555 2.83425L4.32733 7.5L0.128555 12.1647C-0.00343754 12.3117 -0.0374357 12.5227 0.0435599 12.7027C0.124556 12.8837 0.303546 12.9997 0.500535 12.9997H3.50037C3.64236 12.9997 3.77636 12.9387 3.87235 12.8347L8.37211 7.83498C8.5431 7.64499 8.5431 7.35501 8.37211 7.16602Z" fill="#00D1FF"/>
</g>
<defs>
<clipPath id="clip0">
<rect width="15" height="15" fill="white"/>
</clipPath>
</defs>
</svg>
